<svg xmlns="http://www.w3.org/2000/svg" version="1.1" xmlns:xlink="http://www.w3.org/1999/xlink" xmlns:svgjs="http://svgjs.com/svgjs" width="1000" height="1000"><rect width="1000" height="1000" rx="200" ry="200" fill="#ffffff"></rect><g transform="matrix(3.305457310018841,0,0,3.305457310018841,99.99986791161643,114.41965237371716)"><svg xmlns="http://www.w3.org/2000/svg" version="1.1" xmlns:xlink="http://www.w3.org/1999/xlink" xmlns:svgjs="http://svgjs.com/svgjs" width="242.024" height="233.298"><svg xmlns="http://www.w3.org/2000/svg" width="242.024" height="233.298" viewBox="0 0 64.035 61.727"><path d="M58.93 58.416c-.222-.268-.601-1.04-.842-1.717-.242-.676-.445-.972-.453-.657-.015.597-.669.826-.669.235 0-.746.958-2.557 1.951-3.688 1.826-2.08 4.766-2.303 6.057-.46.46.657.46.657 2.032-.02.865-.372 2.493-.78 3.618-.908 1.873-.212 2.148-.159 3.286.63 1.552 1.075 3.585 3.148 3.087 3.148-.204 0-.464-.15-.577-.333-.347-.561-3.359-1.956-4.224-1.956-.481 0-1.557.604-2.622 1.472-2.002 1.63-2.47 1.785-2.47.817 0-.768-.3-.822-1.143-.205-.541.396-.77.336-1.931-.506-1.755-1.271-3.013-1.161-4.028.35-.41.612-.737 1.421-.725 1.8.022.67.03.67.377-.049.52-1.076.797-.9.644.409-.073.63-.28 1.144-.46 1.144-.179 0-.24.221-.137.49.242.633-.246.635-.77.004zM67.43 63.972a.164.164 0 0 1 .327 0c0 .09-.073.164-.163.164a.164.164 0 0 1-.163-.164zM69.23 64.136c.11-.18.128-.327.038-.327s-.255.147-.366.327c-.11.18-.128.327-.038.327s.254-.148.365-.327zM70.537 64.136c.455-.503.485-.654.13-.654-.255 0-.647.294-.871.654-.225.36-.283.654-.13.654.154 0 .546-.295.871-.654z" style="strokeWidth:.327013;fill:#000" transform="translate(-43.618 -48.164)"></path><path d="M64.815 65.836c0-.504.164-1.08.364-1.28.201-.201.533-.703.739-1.115.205-.412.74-.85 1.188-.976 1.291-.359 5.557-.332 5.557.035 0 .18-.23.327-.51.327s-.413.157-.295.348c.54.873-2.277 2.737-3.624 2.4-.603-.152-.973-.04-1.324.401-.472.594-.484.592-.39-.042.053-.36.418-.795.81-.968.967-.425 1.238-1.484.38-1.484-.408 0-.81.385-1.108 1.062-.96 2.179-1.787 2.776-1.787 1.292z" style="strokeWidth:.327013;fill:#000" transform="translate(-43.618 -48.164)"></path><path d="M67.103 66.69c0-.43.803-.72 1.785-.645 1.708.13 1.63.634-.118.755-.917.063-1.667.013-1.667-.11zM99.145 65.427c-.016-5.964-2.674-11.727-6.265-13.584-1.403-.726-4.117-.48-6.794.615-2.165.886-2.972.89-1.814.008.632-.48.626-.49-.164-.263-2.169.623-5.531 2.723-7.44 4.646-2.39 2.41-2.627 2.309-.61-.262 1.747-2.225 4.991-4.703 8.297-6.338 4.819-2.382 5.88-2.554 8.42-1.365 5.47 2.563 8.232 8.283 7.333 15.19-.458 3.526-.955 4.224-.963 1.353z" style="strokeWidth:.327013;fill:#000" transform="translate(-43.618 -48.164)"></path><path d="M93.253 67.39c-.016-2.106-.81-6.248-1.424-7.435-1.092-2.113-4.581-1.88-6.922.46-1.373 1.373-1.453 1.371-1.453-.04 0-2.611 5.13-5.004 7.784-3.63 2.17 1.121 3.224 4.387 2.863 8.86-.234 2.903-.83 4.155-.848 1.784zM71.11 78.855c-.61-.372-1.063-.918-1.063-1.28 0-.348-.09-.865-.199-1.15-.109-.284-.051-.517.128-.517.18 0 .569.605.865 1.345.538 1.346.538 1.346 2.652 1.211 2.45-.156 2.748.15.66.675-1.865.47-1.796.476-3.043-.284z" style="strokeWidth:.327013;fill:#000" transform="translate(-43.618 -48.164)"></path><path d="M105.691 80.16c0-.18.442-.328.981-.328.54 0 .981.147.981.327 0 .18-.441.327-.98.327-.54 0-.982-.147-.982-.327z" style="strokeWidth:.327013;fill:#dc2625;fill-opacity:1" transform="translate(-43.618 -48.164)"></path><path d="M60.93 81.739c-2.378-1.177-4.007-4.38-3.47-6.823.214-.98 2.23-3.586 2.773-3.586.137 0-.036.574-.383 1.276-1.387 2.804-.5 6.464 2.11 8.697 1.517 1.3 1.084 1.482-1.03.436z" style="strokeWidth:.327013;fill:#000" transform="translate(-43.618 -48.164)"></path><path d="M98.338 83.117c-.129-.406.21-1.417.93-2.774.623-1.174 1.191-2.31 1.263-2.526.072-.215.366-.301.654-.19.445.17.336.555-.73 2.582-1.156 2.195-1.384 3.183-.627 2.716.167-.104.304-.048.304.123 0 .303-.752.708-1.313.708-.153 0-.37-.287-.481-.639zM96.28 83.344c-.475-.587-.318-1.522.526-3.122.477-.905.665-1.664.526-2.125-.175-.578-.135-.64.205-.316.312.297.535.306.862.035.946-.785.85.193-.22 2.257-.616 1.19-1.1 2.428-1.076 2.753.057.756-.398 1.042-.822.518zM93.642 83.349c-1.11-1.11 1.36-5.479 3.096-5.479.136 0-.075.3-.468.667-.819.762-2.024 2.987-2.024 3.735 0 .607.678.657 1.308.094.392-.349.394-.323.01.182-.684.902-1.487 1.236-1.922.8z" style="strokeWidth:.327013;fill:#dc2625;fill-opacity:1" transform="translate(-43.618 -48.164)"></path><path d="M79.71 82.985c-1.017-1.017-1.098-2.703-.224-4.627.735-1.619 2.741-3.431 3.798-3.431.816 0 1.806 1.071 1.804 1.953-.002.676-1.29 2.751-1.548 2.493-.113-.113-.031-.38.181-.593.61-.61.479-2.473-.2-2.836-1.543-.826-3.664 1.557-3.664 4.117 0 1.46.453 2.06 1.553 2.06 1.741 0 3.314-1.363 5.66-4.905 1.712-2.583 4.17-5.56 4.592-5.56.17 0 .095.332-.168.737-.263.404-.766 1.765-1.118 3.024-.353 1.26-.804 2.704-1.002 3.21-.198.506-.36.996-.36 1.088 0 .235 1.383-1.496 2.083-2.608 1.539-2.443 5.125-5.484 6.401-5.428.332.014.247.148-.242.384-2.247 1.081-7.236 10.385-5.57 10.385.257 0 .662-.184.9-.409.35-.33.405-.314.285.08-.225.734-1.984 1.66-2.523 1.327-1.08-.668.163-4.388 2.48-7.423.624-.818 1.066-1.557.98-1.642-.084-.085-1.234 1.359-2.555 3.209-2.504 3.507-4.293 5.512-4.917 5.512-.206 0-.128-.264.18-.603.3-.332.925-1.913 1.389-3.513.464-1.6.98-3.205 1.146-3.566.284-.615.277-.618-.113-.049-5.377 7.87-7.347 9.495-9.228 7.614zM98.51 86.145c.583-.665 1.406-1.953 1.828-2.862 1.426-3.071 2.964-5.576 3.424-5.576.652 0 .552.276-1.478 4.095-1.06 1.995-2.322 3.87-3.022 4.489-1.62 1.433-2.063 1.347-.753-.146zM95.566 86.877c-.218-.262-.3-.63-.185-.817.36-.58.743-.38.907.476.175.915-.127 1.058-.722.341z" style="strokeWidth:.327013;fill:#dc2625;fill-opacity:1" transform="translate(-43.618 -48.164)"></path><path d="M62.089 87.108c1.003-1.394 2.208-3.344 2.679-4.333.47-.989.894-1.86.943-1.936.048-.076.426.181.84.57.754.708.754.708-.755 2.315-.83.884-1.78 2.21-2.112 2.945-.332.736-.777 1.338-.988 1.338-.21 0-.73.368-1.152.818-1.512 1.61-1.247.773.545-1.717zM70.383 91.29c-.571-.361-.486-.397 2.28-.967 2.207-.454 4.306-1.592 4.737-2.567.413-.932.61-.918 1.146.083.538 1.004 1.5 1.344 2.19.771.578-.48 2.391-.677 2.391-.261 0 .482-2.39 2.245-3.32 2.45-.503.11-1.407.022-2.01-.196-.942-.341-1.356-.299-2.963.303-1.982.74-3.658.886-4.451.384z" style="strokeWidth:.327013;fill:#000" transform="translate(-43.618 -48.164)"></path><path d="M103.976 93.378c-.33-.331.112-1.12.63-1.12.271 0 .433.237.373.546-.113.585-.672.905-1.003.574z" style="strokeWidth:.327013;fill:#dc2625;fill-opacity:1" transform="translate(-43.618 -48.164)"></path><path d="M55.168 93.191c-6.073-3.182-9.873-7.241-11.132-11.893-.551-2.035-.553-2.285-.031-4.714 1.339-6.23 5.717-13.422 9.346-15.354 2.125-1.132 9.502-2.728 9.502-2.056 0 .165-.626.399-1.39.52-1.773.28-6.24 2.448-7.897 3.831-1.647 1.376-3.604 4.416-4.093 6.358-.211.84-.335 1.575-.276 1.635.06.06 1.202-.172 2.537-.515 1.335-.344 2.507-.538 2.604-.431.097.106.023.249-.165.317-2.105.762-5.585 3.326-6.691 4.93-.943 1.369-.966 3.703-.055 5.761.712 1.61 1.04 1.816 1.676 1.05.436-.525 2.748-1.34 4.757-1.677 1.584-.265 1.239.248-.551.82-1.921.613-3.973 2.626-3.973 3.896 0 1.407 1.063 2.763 2.376 3.032.585.12 1.214.367 1.397.55.474.474.02 1.053-.65.83-.78-.258 1.05 1.323 3.118 2.694 1.456.966 2.001 1.448 1.635 1.445-.045 0-.965-.463-2.044-1.029z" style="strokeWidth:.327013;fill:#000" transform="translate(-43.618 -48.164)"></path><path d="M85.824 96.803c-1.583-.586-1.307-3.148.57-5.28 1.757-1.996 2.738-2.352 5.653-2.049 1.3.135 2.988.261 3.752.28.764.02 1.39.146 1.39.282 0 .45-1.643.67-3.37.453-5.222-.658-4.927-.68-6.22.455-1.426 1.252-2.114 3.266-1.544 4.517.317.697.52.779 1.525.615.945-.153 1.092-.107.796.25-.47.567-1.691.795-2.552.477z" style="strokeWidth:.327013;fill:#dc2625;fill-opacity:1" transform="translate(-43.618 -48.164)"></path><path d="M70.601 97.77c-.868-.77-.868-.77.083-1.812.804-.88 1.012-.97 1.342-.572.263.317 1.058.47 2.45.47 2.06 0 2.06 0 3.557-1.711 1.94-2.218 1.937-1.63-.004.843-2.31 2.943-5.78 4.242-7.428 2.782z" style="strokeWidth:.327013;fill:#000" transform="translate(-43.618 -48.164)"></path><path d="M100.645 100.865c-.28-.729 1.968-5.336 2.603-5.336.648 0 .643.022-.66 2.607-.755 1.5-1.019 2.34-.782 2.486.246.152.22.309-.086.502-.641.406-.838.359-1.075-.259zM95.613 100.843c-.44-.868.117-2.405 1.43-3.937 1.383-1.617 2.177-1.861 1.019-.314-1.209 1.614-1.924 3.19-1.706 3.757.48 1.252 3.32-2.873 3.029-4.4-.102-.533-.044-.688.175-.469.206.206.617.218 1.104.033 1.01-.384.989-.263-.383 2.233-.637 1.16-1.115 2.423-1.063 2.807.062.446-.081.698-.394.698-.27 0-.536-.316-.59-.702-.1-.702-.102-.702-.885.082-.933.932-1.344.983-1.736.212zM92.406 100.936c-.1-.264.272-1.275.828-2.247.99-1.732 1.334-3.071.685-2.67-.18.111-.327.064-.327-.106 0-.548 1.27-.66 1.695-.149.338.409.226.828-.642 2.396-1.197 2.16-1.297 2.657-.481 2.4.489-.153.48-.104-.063.338-.793.646-1.455.661-1.695.038zM89.398 101.006c.41-1.584 5.087-9.728 5.588-9.728.491 0 .398.347-.638 2.37-.668 1.304-1.225 2.445-1.238 2.535-.014.09-.545 1.046-1.18 2.125-.636 1.08-1.253 2.22-1.372 2.535-.243.645-1.324.797-1.16.163zM83.313 100.785c-.657-.725-.57-1.823.146-1.823.33 0 .457.278.398.862-.1.977.377 1.274 1.654 1.03 1.288-.246 2.306-1.44 3.886-4.563 1.187-2.345 3.709-5.608 4.062-5.256.245.246-3.647 7.383-4.568 8.375-1.803 1.944-4.469 2.601-5.578 1.375z" style="strokeWidth:.327013;fill:#dc2625;fill-opacity:1" transform="translate(-43.618 -48.164)"></path><path d="M46.829 109.757c0-.087 1.148-.737 2.552-1.442 4.484-2.255 8.546-5.206 12.17-8.843 3.668-3.68 3.425-3.306 9.13-14.08 1.572-2.968 3.078-5.44 3.347-5.492.27-.052.846.193 1.28.545.789.64.789.64.09 1.403-.384.42-3.157 4.404-6.16 8.853-7.07 10.473-9.858 13.114-18.404 17.437-3.388 1.715-4.005 1.964-4.005 1.62z" style="strokeWidth:.327013;fill:#000" transform="translate(-43.618 -48.164)"></path></svg></svg></g></svg>