<?xml version="1.0" encoding="UTF-8" standalone="no"?>
<svg
   className="w-28 h-28"
   width="64.035416mm"
   height="61.726749mm"
   viewBox="0 0 64.035415 61.726749"
   version="1.1"
   id="svg44"
   sodipodi:docname="logo.svg"
   inkscape:version="1.2.1 (9c6d41e, 2022-07-14)"
   xmlns:inkscape="http://www.inkscape.org/namespaces/inkscape"
   xmlns:sodipodi="http://sodipodi.sourceforge.net/DTD/sodipodi-0.dtd"
   xmlns="http://www.w3.org/2000/svg"
   xmlns:svg="http://www.w3.org/2000/svg">
  <defs
     id="defs48" />
  <sodipodi:namedview
     id="namedview46"
     pagecolor="#ffffff"
     bordercolor="#666666"
     borderopacity="1.0"
     inkscape:showpageshadow="2"
     inkscape:pageopacity="0.0"
     inkscape:pagecheckerboard="0"
     inkscape:deskcolor="#d1d1d1"
     inkscape:document-units="mm"
     showgrid="false"
     inkscape:zoom="2.814195"
     inkscape:cx="146.756"
     inkscape:cy="121.17142"
     inkscape:window-width="1920"
     inkscape:window-height="1052"
     inkscape:window-x="0"
     inkscape:window-y="0"
     inkscape:window-maximized="0"
     inkscape:current-layer="g42" />
  <g
     transform="translate(-43.617801,-48.164196)"
     id="g42">
    <path
       style="strokeWidth: 0.327013; fill: black"
       d="m 58.930925,58.415921 c -0.22249,-0.268081 -0.60194,-1.040648 -0.84322,-1.716816 -0.24128,-0.676168 -0.44516,-0.971874 -0.45305,-0.657124 -0.015,0.596701 -0.66838,0.826201 -0.66838,0.234756 0,-0.745853 0.95807,-2.556686 1.95104,-3.687609 1.82558,-2.079219 4.7658,-2.302633 6.0563,-0.46019 0.46001,0.656751 0.46001,0.656751 2.03267,-0.01979 0.86497,-0.372098 2.4928,-0.780643 3.6174,-0.907878 1.87335,-0.211946 2.14877,-0.159241 3.28592,0.628806 1.55251,1.075889 3.58542,3.149114 3.08788,3.149114 -0.20452,0 -0.46454,-0.149954 -0.57781,-0.333231 -0.34695,-0.561386 -3.35835,-1.955857 -4.22372,-1.955857 -0.48106,0 -1.55682,0.603672 -2.62235,1.471557 -2.0021,1.63073 -2.46994,1.785582 -2.46994,0.817531 0,-0.768268 -0.29924,-0.822045 -1.14263,-0.205344 -0.54114,0.395689 -0.76926,0.335928 -1.93149,-0.505986 -1.75431,-1.270815 -3.01246,-1.161202 -4.02796,0.350924 -0.41042,0.611133 -0.73626,1.420489 -0.72409,1.798569 0.0216,0.671596 0.0303,0.670482 0.37698,-0.04836 0.51885,-1.075812 0.79672,-0.899438 0.64399,0.408765 -0.0735,0.629499 -0.28042,1.144544 -0.45984,1.144544 -0.17942,0 -0.24152,0.220734 -0.13799,0.490519 0.24254,0.632059 -0.24609,0.634026 -0.76971,0.0031 z"
       id="path483" />
    <path
       style="strokeWidth: 0.327013; fill: black"
       d="m 67.430675,63.972035 c 0,-0.08993 0.0736,-0.163506 0.16351,-0.163506 0.0899,0 0.1635,0.07358 0.1635,0.163506 0,0.08993 -0.0736,0.163507 -0.1635,0.163507 -0.0899,0 -0.16351,-0.07358 -0.16351,-0.163507 z"
       id="path481" />
    <path
       style="strokeWidth: 0.327013; fill: black"
       d="m 69.229245,64.135542 c 0.11116,-0.179857 0.12853,-0.327013 0.0386,-0.327013 -0.0899,0 -0.25445,0.147156 -0.36561,0.327013 -0.11116,0.179856 -0.12852,0.327012 -0.0386,0.327012 0.0899,0 0.25445,-0.147156 0.36561,-0.327012 z"
       id="path479" />
    <path
       style="strokeWidth: 0.327013; fill: black"
       d="m 70.537295,64.135542 c 0.45504,-0.502809 0.48494,-0.654026 0.12934,-0.654026 -0.25439,0 -0.64634,0.294312 -0.87098,0.654026 -0.22465,0.359713 -0.28285,0.654025 -0.12934,0.654025 0.1535,0 0.54544,-0.294312 0.87098,-0.654025 z"
       id="path477" />
    <path
       style="strokeWidth: 0.327013; fill: black"
       d="m 64.814575,65.836007 c 0,-0.5036 0.1642,-1.079834 0.36489,-1.280521 0.20068,-0.200687 0.53296,-0.702018 0.73839,-1.114068 0.20543,-0.412049 0.74022,-0.851236 1.18842,-0.97597 1.29109,-0.359305 5.5566,-0.332415 5.5566,0.03503 0,0.179857 -0.22942,0.327012 -0.50982,0.327012 -0.2804,0 -0.41313,0.156429 -0.29498,0.347619 0.53943,0.872809 -2.27671,2.737368 -3.62376,2.399281 -0.60359,-0.151492 -0.97287,-0.03941 -1.32394,0.401827 -0.47219,0.593454 -0.48396,0.592183 -0.39015,-0.04211 0.0532,-0.359714 0.41792,-0.795387 0.81048,-0.968162 0.9661,-0.425209 1.23703,-1.484433 0.37968,-1.484433 -0.40807,0 -0.80988,0.385247 -1.10849,1.062791 -0.96002,2.17827 -1.78732,2.776163 -1.78732,1.2917 z"
       id="path475" />
    <path
       style="strokeWidth: 0.327013; fill: black"
       d="m 67.103465,66.689188 c 3.9e-4,-0.42951 0.80266,-0.719377 1.78408,-0.644596 1.70882,0.130208 1.63054,0.634049 -0.11732,0.755104 -0.91683,0.0635 -1.66688,0.01377 -1.66676,-0.110508 z"
       id="path473" />
    <path
       style="strokeWidth: 0.327013; fill: black"
       d="m 99.145215,65.427241 c -0.0161,-5.963807 -2.6743,-11.727551 -6.26518,-13.584464 -1.40343,-0.725746 -4.11727,-0.479976 -6.79379,0.615257 -2.16556,0.88615 -2.97186,0.889707 -1.81391,0.008 0.63134,-0.480722 0.62578,-0.489641 -0.16402,-0.262876 -2.16915,0.622804 -5.53162,2.722498 -7.43953,4.645621 -2.3914,2.41046 -2.62815,2.308865 -0.61006,-0.26179 1.74664,-2.224878 4.99074,-4.70303 8.2963,-6.337506 4.81862,-2.382622 5.87989,-2.554717 8.41912,-1.365248 5.47088,2.562758 8.232685,8.282652 7.334215,15.18971 -0.458645,3.525783 -0.955415,4.223797 -0.963145,1.353293 z"
       id="path471" />
    <path
       style="strokeWidth: 0.327013; fill: black"
       d="m 93.253255,67.389316 c -0.0165,-2.104846 -0.80987,-6.247445 -1.42388,-7.434799 -1.09238,-2.112437 -4.58144,-1.879903 -6.92272,0.461374 -1.37235,1.372347 -1.45236,1.370089 -1.45236,-0.04099 0,-2.611138 5.12879,-5.003449 7.78356,-3.630617 2.16942,1.121851 3.22464,4.387287 2.86336,8.860766 -0.23449,2.903388 -0.82937,4.155145 -0.84796,1.78427 z"
       id="path469" />
    <path
       style="strokeWidth: 0.327013; fill: black"
       d="m 71.109565,78.85469 c -0.60899,-0.37131 -1.06279,-0.917891 -1.06279,-1.280081 0,-0.34765 -0.0893,-0.864856 -0.19849,-1.149351 -0.10917,-0.284497 -0.0516,-0.517265 0.128,-0.517265 0.17957,0 0.56873,0.605415 0.8648,1.345362 0.53831,1.345366 0.53831,1.345366 2.65161,1.2108 2.44968,-0.155985 2.7484,0.149386 0.66044,0.675144 -1.86533,0.469695 -1.79575,0.476199 -3.04357,-0.284609 z"
       id="path467" />
    <path
       style="strokeWidth:0.327013;fill:#dc2625;fill-opacity:1"
       d="m 105.69115,80.159156 c 0,-0.179857 0.44147,-0.327012 0.98104,-0.327012 0.53957,0 0.98103,0.147155 0.98103,0.327012 0,0.179857 -0.44146,0.327013 -0.98103,0.327013 -0.53957,0 -0.98104,-0.147156 -0.98104,-0.327013 z"
       id="path465" />
    <path
       style="strokeWidth: 0.327013; fill: black"
       d="m 60.930105,81.73897 c -2.37763,-1.176889 -4.00733,-4.380647 -3.47085,-6.823205 0.21524,-0.980017 2.23125,-3.585947 2.77417,-3.585947 0.13636,0 -0.0362,0.574348 -0.38354,1.276329 -1.38734,2.804064 -0.49984,6.463446 2.10919,8.69668 1.5179,1.299267 1.08525,1.482652 -1.02897,0.436143 z"
       id="path463" />
    <path
       style="strokeWidth:0.327013;fill:#dc2625;fill-opacity:1"
       d="m 98.338015,83.11698 c -0.129,-0.406441 0.20977,-1.417034 0.9299,-2.774041 0.62305,-1.174073 1.191535,-2.310815 1.263295,-2.52609 0.0718,-0.215276 0.36587,-0.301078 0.65358,-0.190672 0.44521,0.170842 0.33643,0.555536 -0.73044,2.58301 -1.155095,2.195115 -1.383135,3.183075 -0.626835,2.715656 0.16743,-0.103476 0.304425,-0.04804 0.304425,0.123186 0,0.302774 -0.751615,0.708312 -1.312765,0.708312 -0.15303,0 -0.36955,-0.287712 -0.48116,-0.639361 z"
       id="path461" />
    <path
       style="strokeWidth:0.327013;fill:#dc2625;fill-opacity:1"
       d="m 96.280745,83.343975 c -0.47567,-0.587308 -0.31854,-1.521802 0.52486,-3.121616 0.47734,-0.905448 0.66522,-1.664513 0.5261,-2.125581 -0.1744,-0.577998 -0.13462,-0.639362 0.20499,-0.316195 0.31274,0.297591 0.53505,0.306656 0.86219,0.03515 0.94598,-0.785098 0.85088,0.192868 -0.21951,2.257367 -0.61662,1.189306 -1.10112,2.428091 -1.07665,2.752861 0.0569,0.755752 -0.39749,1.042123 -0.82198,0.51801 z"
       id="path459" />
    <path
       style="strokeWidth:0.327013;fill:#dc2625;fill-opacity:1"
       d="m 93.641775,83.348575 c -1.10894,-1.108945 1.36092,-5.478507 3.09669,-5.478507 0.13567,0 -0.0753,0.299927 -0.46874,0.666504 -0.81843,0.762476 -2.02402,2.987289 -2.02402,3.735138 0,0.607736 0.6783,0.656863 1.30863,0.09478 0.39188,-0.349452 0.39341,-0.323138 0.0106,0.181361 -0.68461,0.902094 -1.48745,1.236372 -1.9231,0.800723 z"
       id="path457" />
    <path
       style="strokeWidth:0.327013;fill:#dc2625;fill-opacity:1"
       d="m 79.710105,82.984947 c -1.01668,-1.016679 -1.09835,-2.702782 -0.22412,-4.627166 0.73518,-1.618296 2.7415,-3.430825 3.79763,-3.430825 0.81688,0 1.80667,1.071286 1.80452,1.953085 -0.002,0.675971 -1.29,2.750931 -1.54791,2.493013 -0.11321,-0.113208 -0.0317,-0.379969 0.18113,-0.592802 0.61043,-0.610428 0.47869,-2.473143 -0.20062,-2.8367 -1.5429,-0.825732 -3.66358,1.557918 -3.66358,4.11787 0,1.459117 0.45295,2.059809 1.5532,2.059809 1.74065,0 3.31385,-1.363364 5.66016,-4.905188 1.71141,-2.583425 4.16942,-5.559213 4.59192,-5.559213 0.17009,0 0.0943,0.3311 -0.16837,0.735778 -0.26269,0.404678 -0.76603,1.765868 -1.11853,3.024866 -0.3525,1.258999 -0.80316,2.703344 -1.00147,3.209661 -0.19831,0.506314 -0.36056,0.995861 -0.36056,1.087879 0,0.234952 1.38306,-1.496442 2.08304,-2.607666 1.53896,-2.443118 5.12496,-5.483978 6.40155,-5.428386 0.33146,0.01442 0.24715,0.147872 -0.24234,0.383596 -2.24649,1.081842 -7.23532,10.385686 -5.56892,10.385686 0.25629,0 0.66097,-0.183945 0.89928,-0.408766 0.3496,-0.329811 0.40454,-0.314602 0.28441,0.07876 -0.22427,0.734382 -1.98393,1.660262 -2.52262,1.327331 -1.07963,-0.667243 0.16331,-4.38724 2.4799,-7.422145 0.62459,-0.818258 1.06609,-1.55728 0.9811,-1.64227 -0.085,-0.08499 -1.23498,1.358802 -2.55554,3.208428 -2.5042,3.507494 -4.29292,5.512692 -4.91754,5.512692 -0.20626,0 -0.12776,-0.264131 0.17936,-0.603495 0.30038,-0.331921 0.92569,-1.91267 1.38958,-3.512779 0.46389,-1.600105 0.97971,-3.204768 1.14627,-3.565914 0.2837,-0.61515 0.27659,-0.618227 -0.11261,-0.0487 -5.37756,7.8692 -7.34747,9.494417 -9.22832,7.613565 z"
       id="path455" />
    <path
       style="strokeWidth:0.327013;fill:#dc2625;fill-opacity:1"
       d="m 98.509385,86.144666 c 0.58373,-0.664823 1.40657,-1.952435 1.828565,-2.861359 1.42595,-3.07143 2.96425,-5.576745 3.42419,-5.576745 0.652,0 0.55223,0.276502 -1.47767,4.095535 -1.06037,1.994976 -2.322625,3.869631 -3.022225,4.488544 -1.61989,1.433051 -2.0637,1.346998 -0.75286,-0.145975 z"
       id="path453" />
    <path
       style="strokeWidth:0.327013;fill:#dc2625;fill-opacity:1"
       d="m 95.565645,86.877237 c -0.21736,-0.261905 -0.30028,-0.629794 -0.18425,-0.817532 0.35884,-0.580611 0.74298,-0.378798 0.90642,0.476196 0.17499,0.9154 -0.1272,1.058232 -0.72217,0.341336 z"
       id="path451" />
    <path
       style="strokeWidth: 0.327013; fill: black"
       d="m 62.088525,87.108173 c 1.00299,-1.393891 2.20857,-3.343703 2.67907,-4.332916 0.4705,-0.989213 0.89486,-1.860463 0.94302,-1.936114 0.0482,-0.07565 0.42653,0.18088 0.8408,0.570071 0.75322,0.707613 0.75322,0.707613 -0.75551,2.314611 -0.8298,0.883846 -1.7803,2.209238 -2.11222,2.945314 -0.33193,0.736076 -0.77623,1.338318 -0.98735,1.338318 -0.21112,0 -0.72947,0.367889 -1.15188,0.817532 -1.51284,1.610334 -1.24746,0.77294 0.54407,-1.716816 z"
       id="path449" />
    <path
       style="strokeWidth: 0.327013; fill: black"
       d="m 70.382955,91.290166 c -0.57128,-0.36128 -0.48624,-0.397353 2.27992,-0.967022 2.20737,-0.454593 4.30585,-1.591743 4.73748,-2.567202 0.41245,-0.932129 0.61042,-0.917859 1.14585,0.08259 0.53784,1.004966 1.50046,1.344163 2.19017,0.771753 0.57786,-0.47958 2.3909,-0.677769 2.3909,-0.261358 0,0.482003 -2.38988,2.244804 -3.32044,2.449187 -0.50278,0.110432 -1.40711,0.02253 -2.00963,-0.195348 -0.94254,-0.340829 -1.35627,-0.298549 -2.96366,0.30285 -1.98123,0.741272 -3.6575,0.886109 -4.45059,0.38455 z"
       id="path447" />
    <path
       style="strokeWidth:0.327013;fill:#dc2625;fill-opacity:1"
       d="m 103.97643,93.378011 c -0.33117,-0.33117 0.11185,-1.119391 0.62914,-1.119391 0.27187,0 0.43372,0.236081 0.37378,0.545171 -0.11349,0.5852 -0.67211,0.90503 -1.00292,0.57422 z"
       id="path445" />
    <path
       style="strokeWidth: 0.327013; fill: black"
       d="m 55.167705,93.191281 c -6.07291,-3.181869 -9.87308,-7.241746 -11.13208,-11.892878 -0.55105,-2.035726 -0.55267,-2.285815 -0.0307,-4.714835 1.33873,-6.229856 5.71658,-13.421756 9.34631,-15.35404 2.12478,-1.131126 9.50127,-2.727175 9.50127,-2.055787 0,0.165019 -0.62541,0.398944 -1.3898,0.519833 -1.77275,0.280361 -6.24007,2.447984 -7.8965,3.831526 -1.64672,1.375424 -3.60436,4.416011 -4.09325,6.357596 -0.21144,0.839672 -0.3354,1.5757 -0.27548,1.635621 0.0599,0.05992 1.20139,-0.172064 2.5366,-0.515512 1.33522,-0.34345 2.50685,-0.537383 2.60364,-0.430964 0.0968,0.10642 0.0228,0.248936 -0.16447,0.316702 -2.10556,0.762048 -5.58528,3.326352 -6.69162,4.931245 -0.94294,1.367844 -0.96516,3.702276 -0.0548,5.760218 0.71235,1.61039 1.04044,1.815835 1.67631,1.049665 0.43568,-0.52497 2.74804,-1.340045 4.75655,-1.67662 1.58433,-0.265495 1.2392,0.248255 -0.55081,0.819942 -1.92092,0.613491 -3.97286,2.625907 -3.97286,3.896328 0,1.40704 1.06284,2.762841 2.37647,3.031508 0.58479,0.119601 1.21338,0.367588 1.39688,0.551081 0.47331,0.473315 0.02,1.05196 -0.64996,0.829608 -0.78019,-0.258948 1.05015,1.32272 3.1171,2.693603 1.45645,0.96598 2.00195,1.44802 1.63506,1.44487 -0.045,-3.2e-4 -0.96469,-0.46331 -2.04383,-1.02871 z"
       id="path443" />
    <path
       style="strokeWidth:0.327013;fill:#dc2625;fill-opacity:1"
       d="m 85.824155,96.802671 c -1.58357,-0.5858 -1.30705,-3.14784 0.56988,-5.280153 1.7566,-1.995607 2.73772,-2.351105 5.65312,-2.04836 1.29913,0.134905 2.98747,0.260864 3.75186,0.279913 0.76439,0.01903 1.3898,0.146089 1.3898,0.282316 0,0.449632 -1.64316,0.670415 -3.36961,0.452755 -5.22265,-0.658433 -4.92724,-0.680048 -6.22016,0.455153 -1.42592,1.251971 -2.11449,3.265756 -1.54445,4.516856 0.31731,0.69641 0.52048,0.77835 1.52553,0.61526 0.94449,-0.15328 1.09207,-0.10694 0.79592,0.24989 -0.47029,0.56668 -1.69151,0.79464 -2.55189,0.47637 z"
       id="path441" />
    <path
       style="strokeWidth: 0.327013; fill: black"
       d="m 70.601185,97.769571 c -0.86803,-0.76928 -0.86803,-0.76928 0.0833,-1.81151 0.8035,-0.88026 1.01197,-0.9692 1.34139,-0.57227 0.26359,0.3176 1.05794,0.46996 2.45021,0.46996 2.06019,0 2.06019,0 3.5571,-1.7112 1.94006,-2.21778 1.93708,-1.62962 -0.004,0.84332 -2.31035,2.94297 -5.77974,4.24227 -7.42777,2.7817 z"
       id="path439" />
    <path
       style="strokeWidth:0.327013;fill:#dc2625;fill-opacity:1"
       d="m 100.64488,100.86501 c -0.27961,-0.72866 1.96838,-5.336229 2.60351,-5.336229 0.64799,0 0.64234,0.0223 -0.65958,2.60761 -0.75532,1.49986 -1.01953,2.338899 -0.78262,2.485309 0.24595,0.15201 0.21909,0.30884 -0.086,0.50217 -0.64131,0.40635 -0.8382,0.35895 -1.07528,-0.25885 z"
       id="path437" />
    <path
       style="strokeWidth:0.327013;fill:#dc2625;fill-opacity:1"
       d="m 95.613205,100.84271 c -0.44065,-0.867829 0.11707,-2.404309 1.42912,-3.937149 1.38366,-1.6165 2.17729,-1.861 1.01927,-0.31401 -1.20832,1.61418 -1.92335,3.18952 -1.70544,3.757389 0.48054,1.25224 3.32019,-2.872919 3.0284,-4.399339 -0.10191,-0.53312 -0.0437,-0.68875 0.17548,-0.46952 0.20584,0.20584 0.616845,0.21808 1.103945,0.0329 1.00983,-0.38394 0.98902,-0.26255 -0.38279,2.23315 -0.637345,1.1595 -1.115605,2.422549 -1.062795,2.806769 0.0612,0.44563 -0.0816,0.69859 -0.39451,0.69859 -0.26979,0 -0.53559,-0.31614 -0.59066,-0.70253 -0.10002,-0.701639 -0.10113,-0.701539 -0.88442,0.0817 -0.93269,0.93269 -1.34415,0.98295 -1.7356,0.21201 z"
       id="path435" />
    <path
       style="strokeWidth:0.327013;fill:#dc2625;fill-opacity:1"
       d="m 92.406295,100.93591 c -0.1011,-0.26346 0.27141,-1.274679 0.8278,-2.247149 0.99053,-1.73128 1.33409,-3.07095 0.6846,-2.66954 -0.17986,0.11116 -0.32702,0.0634 -0.32702,-0.10606 0,-0.54862 1.2705,-0.66022 1.69488,-0.14888 0.33887,0.40831 0.22636,0.82813 -0.642,2.39569 -1.19688,2.160589 -1.29625,2.656939 -0.4806,2.400469 0.48863,-0.15364 0.4795,-0.10434 -0.0625,0.33728 -0.79374,0.64674 -1.45591,0.66166 -1.69516,0.0382 z"
       id="path433" />
    <path
       style="strokeWidth:0.327013;fill:#dc2625;fill-opacity:1"
       d="m 89.398295,101.00621 c 0.40979,-1.584309 5.08706,-9.728199 5.5873,-9.728398 0.49182,-1.97e-4 0.39823,0.347624 -0.63784,2.370609 -0.66782,1.30396 -1.225,2.44442 -1.23816,2.53435 -0.0132,0.0899 -0.54412,1.04644 -1.17989,2.12558 -0.63578,1.07915 -1.25308,2.219599 -1.37179,2.534349 -0.24335,0.64524 -1.32362,0.79755 -1.15962,0.16351 z"
       id="path431" />
    <path
       style="strokeWidth:0.327013;fill:#dc2625;fill-opacity:1"
       d="m 83.312805,100.78528 c -0.65677,-0.72572 -0.56892,-1.822899 0.14597,-1.822899 0.32941,0 0.45759,0.27771 0.39778,0.8618 -0.10002,0.976699 0.37758,1.274059 1.65429,1.029999 1.28861,-0.24633 2.30617,-1.441079 3.88617,-4.562859 1.18699,-2.34526 3.7088,-5.608607 4.06156,-5.255852 0.24548,0.245489 -3.64699,7.382702 -4.56736,8.374672 -1.80347,1.943769 -4.46913,2.600889 -5.57841,1.375139 z"
       id="path429" />
    <path
       style="strokeWidth: 0.327013; fill: black"
       d="m 46.828885,109.75744 c 0,-0.0879 1.1483,-0.73721 2.55177,-1.44286 4.48469,-2.25485 8.54644,-5.206 12.1707,-8.842829 3.66782,-3.68056 3.4251,-3.30623 9.12984,-14.080394 1.57131,-2.967639 3.07753,-5.438676 3.34715,-5.491195 0.26963,-0.05252 0.84526,0.192503 1.2792,0.544493 0.78896,0.639979 0.78896,0.639979 0.0903,1.403537 -0.38428,0.419956 -3.15642,4.403891 -6.16031,8.853188 -7.07043,10.47255 -9.85746,13.11325 -18.40321,17.43696 -3.38806,1.71417 -4.00542,1.96373 -4.00542,1.6191 z"
       id="path472" />
  </g>
</svg>
